<?xml version="1.0" standalone="no"?>
<!DOCTYPE svg PUBLIC "-//W3C//DTD SVG 1.1//EN" "http://www.w3.org/Graphics/SVG/1.1/DTD/svg11.dtd" >
<svg xmlns="http://www.w3.org/2000/svg" xmlns:xlink="http://www.w3.org/1999/xlink" version="1.1">
<metadata></metadata>
<defs>
<font id="neue_schriftregular" horiz-adv-x="1228" >
<font-face units-per-em="2048" ascent="1638" descent="-410" />
<missing-glyph horiz-adv-x="500" />
<glyph horiz-adv-x="0" />
<glyph horiz-adv-x="682" />
<glyph unicode=" " />
<glyph unicode="," />
<glyph unicode="-" />
<glyph unicode="." />
<glyph unicode="0" horiz-adv-x="923" d="M121 414q76 -300 301 -459q177 -121 436 -102v247h-76q-210 3 -323 193q-58 99 -84 203q-79 297 -27 632q27 173 94 291q70 128 167.5 175.5t252.5 47.5v246q-417 25 -624 -299q-79 -124 -117 -264q-119 -450 0 -911z" />
<glyph unicode="1" horiz-adv-x="864" d="M61 1290q246 3 484 140v-601h258v1059h-191q-105 -151 -217 -230t-248 -108z" />
<glyph unicode="2" horiz-adv-x="1431" d="M61 1081h271l8 170q9 91 46.5 167t95 125.5t128.5 75.5t152 19.5t160 -45.5q96 -47 143.5 -133t38.5 -194q-14 -142 -121 -252q-80 -80 -192 -164q-50 -36 -169 -116.5t-180 -127.5q-114 -91 -247 -227q-6 -6 -12 -13t-10.5 -12t-10.5 -13t-9 -12.5l-10 -15t-10 -14.5 t-11.5 -17.5t-11 -18t-13.5 -22.5t-15 -24l338 -2q38 60 63 86t107 86q44 31 133 91.5t133 90.5q235 164 356 310q176 223 156 481q-24 308 -299 452q-115 59 -272 72q-274 21 -458 -104t-241 -396q-9 -37 -37 -303z" />
<glyph unicode="3" horiz-adv-x="1177" d="M61 479q6 -227 131 -384t345 -216q87 -20 106 -22q273 -27 473 59v301q-122 -75 -205 -98.5t-200 -14.5q-146 11 -243 91t-128 217q-8 34 -12 139v88h-265q0 -19 -1.5 -75t-0.5 -85zM111 1130h251q5 89 7 99q3 15 9.5 48t10.5 52.5t11.5 46.5t15.5 49q59 161 229 199 q233 54 420 -76q33 -19 49 -30v307l-82 30q-148 46 -327 33q-127 -9 -233.5 -57.5t-178.5 -123.5t-119 -169.5t-62.5 -199t-0.5 -208.5zM606 797q94 4 176 6t170.5 -20t161.5 -72v463q-25 -22 -51 -40t-55 -30.5t-53 -21.5t-58 -14.5t-55 -9t-60 -4.5t-57 -1.5t-60.5 0 t-58.5 0.5v-256z" />
<glyph unicode="4" horiz-adv-x="1009" d="M61 952l312 443l-4 -774h-301v-250h317v-455h260l8 459h295v252h-301v1261h-225l-207 -293l-154 -221v-422z" />
<glyph unicode="5" horiz-adv-x="1478" d="M61 788h250l39 58q4 9 11.5 18.5t12.5 15t17 17t15 14.5q72 80 180.5 112.5t214.5 15t199.5 -90.5t134.5 -190l22 -56h260q-35 274 -229 433q-335 267 -780 90l90 420h848v243h-1063z" />
<glyph unicode="6" horiz-adv-x="946" d="M78 612q22 -218 121 -389q106 -175 298 -259t386 -38v244q-227 -27 -361 86q-156 129 -162 338q-3 188 113 319q153 173 412 136v249q-287 41 -527 -153q-4 102 43 228.5t117 205.5q109 121 262 121h105v250q-400 31 -619 -267q-79 -108 -133 -282q-105 -360 -55 -789z " />
<glyph unicode="7" horiz-adv-x="1067" d="M61 1647h945l-2 241h-943v-241zM328 -80h270q7 50 20 154q39 376 123.5 618.5t264.5 505.5v418q-187 -183 -350 -488t-253 -633t-75 -575z" />
<glyph unicode="8" horiz-adv-x="1523" d="M61 575h254q53 108 119 160.5t174 71.5q140 26 266 6q125 -21 206.5 -75t117.5 -163h264q-29 245 -237 383q4 5 10.5 13.5t9.5 11.5q105 104 142 238.5t7.5 257t-123.5 225t-235 145.5q-257 81 -530 9q-198 -56 -298 -194t-91 -345q6 -186 135 -318q7 -6 19.5 -19 t19.5 -19q-123 -101 -177.5 -193t-52.5 -195zM381 1374q9 176 166 228q140 41 211.5 40.5t212.5 -40.5q166 -55 166 -242q3 -173 -148 -240q-232 -99 -461 0q-156 67 -147 254z" />
<glyph unicode="9" horiz-adv-x="1103" d="M67 1293.5q-20 -167.5 31 -327t164 -272.5q97 -97 242 -150t291.5 -47t246.5 72v275q-203 -101 -349 -86.5t-257 145.5q-100 117 -108 273t80 284q86 121 225 164q207 61 407 -78v295q-104 42 -222.5 50.5t-235.5 -16.5t-225 -96.5t-181 -181.5q-89 -136 -109 -303.5z M72 492q-11 -167 64.5 -317t209.5 -228q321 -182 694 -25v338q-46 -40 -67 -61q-112 -95 -245.5 -100.5t-240 75.5t-143.5 223q-2 7 -5 22.5t-5 22.5q-16 46 -17 50h-245z" />
<glyph unicode="A" horiz-adv-x="1533" d="M61 397h285l43 115h752l53 -115h279l-584 1491h-234zM489 768l283 721l275 -721h-558z" />
<glyph unicode="B" horiz-adv-x="1353" d="M61 -2q55 0 187 -1q88 -1 158 -1h66q92 0 175 4q216 3 381 102q132 79 202 218q62 122 62 254q0 20 -1 38q-10 152 -101 271q-19 25 -44 49.5t-59 54.5t-49 45q4 4 13 10q178 143 178 355q0 43 -6 86q-29 189 -148 305.5t-311 144.5q-102 15 -216 17q-47 1 -101 1 q-77 -1 -165 -3q-89 -2 -149 -2h-37h-35v-252h508q106 -4 179 -19q99 -20 153.5 -81t59.5 -154v-18q0 -92 -46 -160q-51 -74 -147 -103q-77 -22 -156 -22q-85 -2 -508 -2h-43v-254h43q426 0 510 -2q112 -3 222 -39q183 -60 186 -256q0 -211 -172 -287q-103 -44 -242 -47 h-502h-45v-252z" />
<glyph unicode="C" horiz-adv-x="1429" d="M61 385q0 -211 2 -313q0 -18 25 -33q206 -107 424 -107q92 0 186 19q124 25 231.5 85.5t186.5 146t136.5 190.5t86 221t29.5 235h-268q-13 -442 -359 -596q-117 -51 -232 -51q-228 0 -448 203zM61 1513q200 203 471 203q47 0 95 -6q163 -20 282.5 -124.5t151.5 -256.5 q12 -64 16 -92q43 0 129 1t127 1v23q-3 260 -207 477q-180 192 -462 223q-67 7 -130 7q-251 0 -442 -105q-10 -5 -19.5 -15.5t-9.5 -17.5q-2 -102 -2 -318z" />
<glyph unicode="D" horiz-adv-x="1372" d="M61 0q57 2 107 2q33 0 63 -1q33 -1 70 -1q46 0 99 2q94 2 167 12q240 31 408.5 161t255.5 357q80 212 80 440q0 175 -47 359q-126 495 -627 598q-85 17 -175 21q-48 2 -107 2q-53 0 -113 -2q-76 -2 -125 -2h-29h-27v-250h60q37 -1 133 -2t164 -4t131 -11 q330 -39 436 -346q56 -167 56 -347q0 -124 -27 -255q-83 -404 -488 -469q-46 -7 -99.5 -9t-119 -2t-100.5 -1h-146v-252z" />
<glyph unicode="E" horiz-adv-x="1110" d="M61 0h988v240h-988v-240zM61 858h920v240h-920v-240zM61 1653h975v235q-228 4 -472 4t-503 -4v-235z" />
<glyph unicode="F" horiz-adv-x="1173" d="M61 778h949v258h-949v-258zM61 1630h1051v258h-1051v-258z" />
<glyph unicode="G" horiz-adv-x="1902" d="M61 987q0 -168 41 -323q38 -141 106.5 -256t154 -193t188 -131.5t210 -76.5t217.5 -23q3 -1 5 -1q108 0 208 24q102 24 194 69t163 108q2 2 43 27v-180h248l2 1030h-909v-252h653q-8 -234 -136.5 -381.5t-354.5 -179.5q-63 -9 -122 -9q-166 0 -306 74q-189 101 -275 324 q-64 168 -64 349q0 58 7 118q3 22 8 63.5t8 61.5h-264q-10 -32 -12 -49q-13 -99 -13 -193z" />
<glyph unicode="H" horiz-adv-x="1636" d="M61 0h267v866l987 -6v-860h260v1550h-264v-415h-985v417h-265v-1552z" />
<glyph unicode="I" horiz-adv-x="380" d="M61 -8h258v1485h-133h-125v-1485z" />
<glyph unicode="J" horiz-adv-x="1280" d="M61 735q0 -279 25 -379q81 -320 395 -372q89 -13 180 -13q52 0 105 4q169 19 278.5 118t147.5 267q22 92 25 209l2 1071h-269l-2 -1065q0 -78 -16 -163q-26 -132 -144 -168q-77 -25 -152 -25q-69 0 -136 21q-155 46 -168 227q-3 38 -3 81.5t1.5 99t1.5 87.5h-271z" />
<glyph unicode="K" horiz-adv-x="1792" d="M61 0h261v84q0 88 -1.5 287.5t-1.5 287.5l287 275l176 -211l627 -723l322 -2l-926 1116l330 326h-349q-75 -71 -395 -361q-9 -9 -31.5 -27.5t-35.5 -29.5v412h-263v-1434z" />
<glyph unicode="L" horiz-adv-x="1392" d="M61 840l2 -840h1268v246l-1014 2v592h-256z" />
<glyph unicode="M" horiz-adv-x="1669" d="M61 0h256v1307l564 -1307h213l512 1239l2 608h-19l-594 -1429h-14l-645 1532h-275v-1950z" />
<glyph unicode="N" horiz-adv-x="1341" d="M61 0h256l9 1421l954 -1380v416l-977 1431h-242v-1888z" />
<glyph unicode="O" horiz-adv-x="1927" d="M63 940q0 -43 5 -78q77 -4 141 -4t115 4q0 120 2 142q13 223 118 385q60 93 146 159t182 96q94 30 195 31q1 -1 3 -1q104 0 197.5 -32t177.5 -99.5t140 -162.5q128 -221 128 -446q0 -228 -128 -455q-136 -240 -428 -282q-42 -5 -84 -5q-140 0 -287 58v-273q28 -3 79 -10 t90.5 -11.5t74.5 -6.5q27 -1 53 -1q260 0 468 134q229 148 335 420q80 202 80 419q0 131 -29 267q-70 330 -291 522.5t-530 204.5q-23 1 -45 1q-506 0 -762 -415q-102 -166 -131 -381q-15 -103 -15 -180z" />
<glyph unicode="P" horiz-adv-x="1243" d="M61 1649h43q84 -1 253 -1t253 -1q264 -3 308 -248q7 -38 7 -74q0 -79 -34 -145q-50 -96 -156 -133q-68 -23 -149 -23q-81 -2 -486 -2h-37v-244h27h479q110 3 189 19q333 72 405 370q18 83 18 175q0 24 -1 49q-19 345 -322 458q-103 36 -225 39q-65 2 -147 3q-54 1 -104 1 h-49q-72 0 -131.5 -1t-99.5 -2l-41 -1v-239z" />
<glyph unicode="Q" horiz-adv-x="1964" d="M61 939.5q0 -5.5 2 -19t3 -19.5h256v92q10 203 96 363q181 321 540 321h7q356 0 536 -317q80 -140 96 -326q5 -53 5 -103q0 -253 -121 -450q-7 -12 -25 -33.5t-26 -33.5q-52 38 -146 104.5t-139 99.5l-146 -198q112 -79 230 -166q-122 -56 -266 -56q-87 0 -183 21v-242 q60 -19 140 -23q22 -1 45 -1q60 0 125 7q89 11 186.5 44.5t179.5 85.5q47 -34 301 -215q9 12 146 197l-256 186q12 21 48.5 80.5t53.5 91.5q115 237 115 498q0 155 -41 319q-75 298 -294.5 481t-531.5 195q-20 1 -40 1q-264 0 -478 -136q-230 -146 -338 -412 q-80 -201 -80 -418v-18.5z" />
<glyph unicode="R" horiz-adv-x="1359" d="M61 788h89q38 -1 98 -1q30 0 65 0.5t68 0.5q66 0 123 -1q86 -1 162 -5q115 -6 171.5 -61.5t65.5 -169.5q3 -36 5 -114t4.5 -147t8 -138.5t20.5 -110.5t38 -41h319q-24 43 -30 49q-55 51 -74.5 117t-19.5 156v41q0 112 -13 235q-16 175 -135 283l-47 43l15 10l12 8 q185 145 194 391q1 17 1 34q-1 185 -91 309q-98 134 -293 182q-102 25 -223 28q-71 2 -151.5 2t-178.5 -1t-151 -1h-52v-246q82 0 193.5 0.5t184.5 0.5t134 -1q69 0 144 -16q102 -20 160.5 -85t64.5 -163q1 -12 1 -28q0 -101 -47 -176q-52 -84 -155 -113q-88 -24 -186 -27 q-62 -1 -132 -1t-156.5 0.5t-133.5 0.5h-72v-244z" />
<glyph unicode="S" horiz-adv-x="905" d="M61 -45q44 -3 86 -3q113 0 211 20q134 27 250 108q87 61 144 141q84 115 92 257q1 16 1 32q-1 124 -59 234q-66 124 -190 194q-89 49 -203 82q-41 12 -84 22t-106.5 23t-85.5 18q-23 6 -56 9v-246q18 -4 59.5 -12.5t71.5 -15.5t56 -15q135 -43 211 -80q109 -53 121 -170 q2 -20 2 -39q0 -150 -127 -238q-84 -58 -195 -71q-103 -9 -199 -15v-235zM61 1679q120 -9 203.5 -30.5t151.5 -77.5q73 -59 99 -141.5t28 -196.5q16 0 41 -1t37 -1q57 -2 170 -2q7 44 7 88q0 125 -59 247q-80 164 -231 253q-136 78 -309 94q-10 1 -33 4t-36.5 4t-33 0 t-35.5 -6v-234z" />
<glyph unicode="T" horiz-adv-x="983" d="M61 1642h605l2 -1642h254v1888h-861v-246z" />
<glyph unicode="U" horiz-adv-x="1302" d="M61 1888q0 -939 2 -1118q0 -164 33 -305q70 -300 314 -422q159 -79 350 -82h22q276 0 441 98l18 404q-83 -214 -319 -246q-66 -9 -130 -9q-48 0 -94 5q-236 21 -325 244q-54 137 -54 321q3 419 3 1110h-261z" />
<glyph unicode="V" horiz-adv-x="944" d="M61 1884l719 -1884h101l2 385l-541 1497z" />
<glyph unicode="W" horiz-adv-x="1849" d="M61 1888l543 -1888h236l411 1448l422 -1446h115l-2 465l-410 1415l-248 2l-403 -1415l-406 1419h-258z" />
<glyph unicode="X" horiz-adv-x="1546" d="M61 0h316l551 758l555 -752v424l-389 539l385 530l6 389l-557 -708l-512 708h-310l660 -919z" />
<glyph unicode="Y" horiz-adv-x="1005" d="M61 1882l758 -1096v-786h125v1030l-582 852h-301z" />
<glyph unicode="Z" horiz-adv-x="1490" d="M61 1645h1020q-125 -167 -353 -468t-292 -386h303l19 22l653 860q16 27 16 31l3 184h-1369v-243z" />
<glyph unicode="a" horiz-adv-x="636" d="M60 349q0 -123 59 -209q66 -96 211 -128q21 -4 46.5 -6.5t43.5 -3t49.5 -1.5t44.5 -1q5 0 59 6v187q-19 0 -51.5 -1.5t-58.5 -1.5t-49 3q-90 11 -128 61q-24 32 -24 83q0 30 8 66q17 80 129 107q42 9 176 27v184q-62 -4 -97 -7t-85.5 -12t-91.5 -24q-226 -78 -240 -299 q-1 -15 -1 -30zM109 810q0 -37 8 -75q66 -2 194 -2q0 4 2 31t3 34t4 29.5t7 32.5t10 26.5t15 29t21 24.5q37 37 85.5 50.5t116.5 17.5v186q-27 3 -53 3q-102 -1 -196 -51q-118 -64 -177 -176q-40 -78 -40 -160z" />
<glyph unicode="b" horiz-adv-x="1161" d="M61 643h197q13 99 21 131q20 79 73 137.5t119 85.5q52 21 111 21q14 0 30 -1q76 -7 140 -52q100 -68 133 -207l18 -115h197q0 155 -57.5 284.5t-170.5 198.5q-133 81 -273 81h-3q-165 0 -338 -111v483h-197v-936z" />
<glyph unicode="c" horiz-adv-x="620" d="M61 601q0 -169 82 -343q69 -138 215 -211q96 -47 199 -47v188q-221 32 -274 267q-14 69 -17 157q0 156 86 273q75 103 207 121v190l-39 -4q-280 -41 -393 -291q-66 -149 -66 -300z" />
<glyph unicode="d" horiz-adv-x="1165" d="M61 637h201l19 119q29 146 130 216q72 50 164 50q36 0 76 -8q159 -33 221 -219l35 -158h197v948h-201v-487l-22 16q-127 95 -295 98h-10q-162 0 -287 -88q-171 -119 -213 -364q-9 -62 -15 -123z" />
<glyph unicode="e" horiz-adv-x="659" d="M61 0q29 -4 58 -4q71 0 141 24q98 34 171 101.5t119 165t48 205.5h-199q-28 -150 -108 -230q-74 -74 -206 -75q-12 0 -24 1v-188zM63 526h533q0 146 -2 174q-3 49 -16 107q-72 278 -318 364q-77 28 -165 28q-16 0 -32 -1v-190q11 1 21 1q123 0 201 -77q82 -77 102 -217 h-324v-189z" />
<glyph unicode="f" horiz-adv-x="745" d="M61 1094h183v-222h200v224h213v190h-213v137q0 53 18 70.5t70 17.5q9 0 33 -4l119 -18l-2 190l-12 4q-105 18 -159 18h-15q-15 -1 -29 -3q-105 -19 -163.5 -87t-59.5 -175v-150h-183v-192z" />
<glyph unicode="g" horiz-adv-x="737" d="M61 98q50 -9 99 -9q171 0 321 110q-14 -140 -16 -150q-30 -150 -182 -186q-41 -8 -160 -8l-62 4v-191l84 -8q85 0 150 8q140 19 233.5 103.5t124.5 220.5q21 85 21 176l2 1030h-195v-74q-150 104 -311 104q-53 0 -107 -11v-195l39 10q34 6 65 6q74 0 136 -32 q88 -45 129 -144q44 -102 44 -204t-44 -203q-42 -99 -128 -144q-61 -32 -133 -32q-30 0 -62 6l-48 6v-193z" />
<glyph unicode="h" horiz-adv-x="1116" d="M61 1649l2 -918h207l13 55q31 135 123 203q80 59 194 59q17 0 35 -1q78 -5 131 -53t63 -124q11 -82 11 -133v-663v-70h215v35q0 489 -2 733q0 54 -6 109q-39 263 -246 336q-99 37 -196 37h-5q-146 0 -283 -83l-49 -30v508h-207z" />
<glyph unicode="i" horiz-adv-x="321" d="M61 723h199l-2 600h-197v-600zM61 1403h197l2 321h-199v-321z" />
<glyph unicode="j" horiz-adv-x="520" d="M61 -80v-186q46 -20 110 -20q37 0 81 7q79 13 130.5 67t63.5 134q11 75 11 125l2 768v53h-203v-805q0 -59 -4 -88q-8 -42 -23 -54t-57 -11q-14 0 -111 10z" />
<glyph unicode="k" horiz-adv-x="1159" d="M61 2h199l2 416l158 137l45 -57l373 -496l260 -2l-520 696l301 271h-289l-330 -283v277h-199v-959z" />
<glyph unicode="l" horiz-adv-x="315" d="M61 487h193v1033h-193v-1033z" />
<glyph unicode="m" horiz-adv-x="1263" d="M61 958q16 3 48 11t49 10q14 2 28 2q56 -1 98 -31q52 -38 64 -110q10 -41 10 -101v-741h201v639q0 59 6 115q17 118 96 180q62 49 143 49q22 0 46 -4q62 -9 100 -48t45 -102q4 -35 4 -102l-4 -725h207v735q0 59 -4 90q-23 230 -207 314q-80 36 -168 36q-47 0 -96 -10 q-142 -29 -229 -131q-110 98 -226 128q-48 12 -91 13q-64 0 -120 -26v-191z" />
<glyph unicode="n" horiz-adv-x="841" d="M61 782q47 108 135 160q68 40 154 40q25 0 51 -3q73 -9 118.5 -55.5t53.5 -120.5q9 -71 9 -137v-666h198v721q0 57 -2 84q-12 131 -79 221t-181 125q-75 24 -148 24h-6q-63 0 -124 -16q-33 -9 -138 -55l-41 -17v-305z" />
<glyph unicode="o" horiz-adv-x="1193" d="M61 668h203q25 136 80 213q62 83 156 113q47 15 94 16l94 -16q94 -30 156 -113q85 -115 85 -282t-85 -284q-66 -92 -175 -120q-39 -10 -77 -10q-68 0 -133 32l-53 29v-213q16 -8 22 -10q80 -25 162 -25h23q94 4 176.5 33.5t153 94t114.5 155.5q77 157 77 315 q0 152 -71 305q-139 297 -469 297q-161 0 -279.5 -75.5t-187.5 -221.5q-9 -19 -18 -43.5t-13.5 -41.5t-12.5 -47.5t-11 -43.5z" />
<glyph unicode="p" horiz-adv-x="774" d="M61 -412v1608h201h2q4 -52 6 -76v-2q2 0 4 2q15 7 62 29t78.5 36t62.5 25q49 17 114 17t122 -8v-205q-12 1 -70 6h-10q-10 2 -31 2q-235 0 -303 -238q-30 -99 -30 -201.5t30 -207.5q24 -88 78 -142q83 -80 224 -80q18 0 38 1h6q9 1 66 10v-2v-203q-62 -10 -111 -10 q-166 0 -330 102q-2 -57 -2 -155q-1 -23 -1 -48.5t0.5 -57t0.5 -48.5v-154h-207z" />
<glyph unicode="q" horiz-adv-x="757" d="M61 45q59 -12 116 -12q173 0 327 112v-448l192 2v1499h-192v-88q-116 82 -209 102q-65 12 -123 12t-111 -12v-194q16 2 41 7l35 7q27 4 53 4q66 0 122 -26q77 -36 122 -119q69 -131 69 -262q0 -139 -79 -279q-67 -119 -205 -125q-23 -1 -48.5 0t-58 3t-51.5 3v-186z" />
<glyph unicode="r" horiz-adv-x="710" d="M61 1198l2 -686h191v86q5 122 10 154q19 118 106 188q80 64 189 64h19q12 -1 35.5 -2.5t35.5 -2.5v205q-103 0 -123 -2q-147 -12 -276 -98v94h-189z" />
<glyph unicode="s" horiz-adv-x="700" d="M61 176q65 -8 123 -8q157 0 267 55q188 93 188 284q0 49 -12 105q-19 82 -75 135.5t-138 79.5q-52 16 -105.5 29.5t-138 33t-109.5 25.5v-210q41 -10 95 -21q139 -26 217 -63q45 -21 59 -66q7 -21 6 -42q0 -23 -8 -46q-16 -43 -53 -61q-51 -27 -82 -33q-52 -14 -113 -14 q-56 0 -121 12v-195zM61 1169q15 1 49.5 4t53.5 3q37 0 94 -11q76 -17 112.5 -60.5t37.5 -119.5v-70l200 3q0 14 0.5 35t0.5 36.5t-1 30.5q-20 201 -172 285q-116 63 -251 63q-55 0 -113 -10q-3 0 -11 -8v-181z" />
<glyph unicode="t" horiz-adv-x="509" d="M61 1010h189l-2 -682q0 -122 69 -199q61 -65 132 -70v1459l-201 2v-322h-187v-188z" />
<glyph unicode="u" horiz-adv-x="819" d="M61 459q0 -55 11 -137q44 -238 247 -304q47 -15 113 -22q29 -3 56 -3q136 0 249 66q21 16 21 27v256q-66 -94 -130 -128q-56 -30 -140 -31q-12 0 -25 1q-82 5 -135 54.5t-60 132.5q-4 74 -4 110v686h-203v-708z" />
<glyph unicode="v" d="M117 1151l465 -1151h86v319l-334 830z" />
<glyph unicode="w" horiz-adv-x="1245" d="M61 1149h213l244 -789l238 793h194l234 -778v-375h-86l-244 782l-240 -782h-190z" />
<glyph unicode="x" horiz-adv-x="1052" d="M61 -8h269l348 467l303 -414l10 373l-176 215l170 225l2 354l-307 -405l-293 407h-297l451 -581z" />
<glyph unicode="y" horiz-adv-x="692" d="M61 1194l420 -995q21 -47 21 -96q0 -46 -19 -93q-20 -49 -34 -73.5t-38 -43t-56 -23.5t-87 -5h-63v-184h196q149 9 220 153q8 16 8 39l2 492l-344 825z" />
<glyph unicode="z" horiz-adv-x="976" d="M61 1010h568l-355 -459l261 4l378 496l2 147h-854v-188z" />
<glyph unicode="&#x25fc;" horiz-adv-x="1215" d="M0 0v1215h1215v-1215h-1215z" />
</font>
</defs>
</svg>
