<svg version="1" xmlns="http://www.w3.org/2000/svg" width="666.667" height="666.667" viewBox="0 0 500.000000 500.000000"><path d="M95 208.4c-8.4 1.8-14.9 5.4-21 11.6-16.8 17.1-16.9 42.9-.1 59.9 16.6 16.9 43.5 17 60.1.2 24.2-24.5 11.4-65.8-22.4-72-7.2-1.3-9.5-1.3-16.6.3zM241 208.4c-8.4 1.8-14.9 5.4-21 11.6-16.8 17.1-16.9 42.9-.1 59.9 16.6 16.9 43.5 17 60.1.2 24.2-24.5 11.4-65.8-22.4-72-7.2-1.3-9.5-1.3-16.6.3zM387 208.4c-8.4 1.8-14.9 5.4-21 11.6-16.8 17.1-16.9 42.9-.1 59.9 16.6 16.9 43.5 17 60.1.2 24.2-24.5 11.4-65.8-22.4-72-7.2-1.3-9.5-1.3-16.6.3z"/></svg>